<?xml version="1.0" encoding="UTF-8" standalone="no"?>
<!DOCTYPE svg PUBLIC "-//W3C//DTD SVG 1.1//EN" "http://www.w3.org/Graphics/SVG/1.1/DTD/svg11.dtd">
<!-- Created with Vectornator (http://vectornator.io/) -->
<svg height="100%" stroke-miterlimit="10" style="fill-rule:nonzero;clip-rule:evenodd;stroke-linecap:round;stroke-linejoin:round;" version="1.1" viewBox="0 0 570 230" width="100%" xml:space="preserve" xmlns="http://www.w3.org/2000/svg" xmlns:vectornator="http://vectornator.io" xmlns:xlink="http://www.w3.org/1999/xlink">
<defs/>
<clipPath id="ArtboardFrame">
<rect height="230" width="570" x="0" y="0"/>
</clipPath>
<g clip-path="url(#ArtboardFrame)" id="Layer-1" vectornator:layerName="Layer 1">
<g opacity="1">
<path d="M42.7169 41.2717L525.175 41.2717C547.421 41.2717 565.454 59.305 565.454 81.5503L565.454 151.985C565.454 174.23 547.421 192.263 525.175 192.263L42.7169 192.263C20.4716 192.263 2.43825 174.23 2.43825 151.985L2.43825 81.5503C2.43825 59.305 20.4716 41.2717 42.7169 41.2717Z" fill="#500c5a" fill-rule="nonzero" opacity="1" stroke="#3e68ff" stroke-linecap="butt" stroke-linejoin="round" stroke-width="7.52"/>
<path d="M91.3657 156.981L61.212 139.571C58.2657 137.87 55.8773 133.734 55.8773 130.332L55.8773 95.513C55.8773 92.111 58.2657 87.9742 61.212 86.2731L91.3657 68.8639C94.312 67.1629 99.0887 67.1629 102.035 68.8639L132.189 86.2731C135.135 87.9742 137.523 92.111 137.523 95.513L137.523 130.332C137.523 133.734 135.135 137.87 132.189 139.571L102.035 156.981C99.0887 158.682 94.312 158.682 91.3657 156.981Z" fill="#ffffff" fill-rule="nonzero" opacity="1" stroke="#3e68ff" stroke-linecap="butt" stroke-linejoin="round" stroke-width="7.52"/>
<g fill="#ffffff" opacity="1" stroke="none">
<path d="M222.178 79.4411C223.957 79.4411 225.737 79.7732 227.517 80.4374C229.296 81.1016 230.756 81.9476 231.897 82.9753C233.037 84.0029 233.608 84.993 233.608 85.9455C233.608 86.5721 233.438 87.1987 233.1 87.8254C232.762 88.452 232.317 88.9658 231.765 89.3669C231.214 89.7679 230.625 89.9684 229.998 89.9684C229.572 89.9684 229.133 89.8306 228.682 89.5548C228.231 89.2791 227.655 88.853 226.953 88.2765C225.9 87.4243 224.96 86.7664 224.133 86.3027C223.306 85.8389 222.353 85.6071 221.275 85.6071C218.393 85.6071 216.018 87.017 214.151 89.8368C212.283 92.6567 211.049 96.8739 210.447 102.488L210.372 103.09C211.099 103.065 212.24 103.002 213.794 102.902C217.052 102.676 219.609 102.564 221.463 102.564C223.469 102.564 224.471 103.24 224.471 104.594C224.471 105.446 224.202 106.211 223.663 106.887C223.124 107.564 222.422 108.084 221.557 108.448C220.693 108.811 219.772 108.993 218.794 108.993L214.583 108.955C213.956 108.93 212.991 108.918 211.688 108.918C210.811 108.918 210.159 108.93 209.733 108.955C209.282 113.241 208.887 116.907 208.549 119.953C208.21 122.998 207.928 125.586 207.703 127.716C207.577 128.769 207.377 130.574 207.101 133.131C206.901 134.985 206.763 136.803 206.688 138.582C206.612 140.362 206.562 141.402 206.537 141.703C206.512 143.132 206.449 144.297 206.349 145.199C206.249 146.202 205.792 146.992 204.977 147.568C204.162 148.145 203.128 148.433 201.875 148.433C200.722 148.433 199.801 148.088 199.112 147.399C198.422 146.71 198.078 145.901 198.078 144.974C198.078 144.272 198.153 143.507 198.303 142.68C198.454 141.853 198.692 140.8 199.018 139.522C199.318 138.269 199.569 137.103 199.77 136.026C200.421 132.341 200.935 128.757 201.311 125.273L202.477 115.159L203.153 109.369L200.258 109.632C198.178 109.858 196.737 109.97 195.935 109.97C194.656 109.97 193.622 109.713 192.833 109.2C192.043 108.686 191.649 107.852 191.649 106.699C191.649 105.421 191.999 104.418 192.701 103.692C193.403 102.965 194.368 102.601 195.596 102.601C196.223 102.601 197.288 102.676 198.792 102.827C200.522 103.027 202.226 103.153 203.905 103.203L204.056 101.812C205.008 93.9412 206.988 88.2452 209.996 84.7236C213.004 81.2019 217.065 79.4411 222.178 79.4411Z"/>
<path d="M253.008 102.3C254.236 102.3 255.232 102.658 255.997 103.372C256.761 104.086 257.144 105.033 257.144 106.211C257.144 107.339 256.812 108.278 256.147 109.03C255.483 109.782 254.612 110.158 253.534 110.158C252.256 110.158 251.241 110.19 250.489 110.252C249.737 110.315 248.96 110.478 248.158 110.741C247.356 111.004 246.529 111.437 245.676 112.038C243.696 113.417 241.798 115.591 239.98 118.561C238.163 121.532 236.741 124.759 235.713 128.243C234.61 137.041 234.059 142.555 234.059 144.786C234.059 145.864 233.645 146.741 232.818 147.418C231.991 148.094 230.926 148.433 229.622 148.433C228.494 148.433 227.567 148.107 226.84 147.455C226.113 146.804 225.75 145.989 225.75 145.011C225.75 144.61 225.825 144.046 225.975 143.319C226.126 142.593 226.301 141.816 226.502 140.988C226.752 140.011 227.015 138.858 227.291 137.529C227.943 134.371 228.695 129.86 229.547 123.994C230.399 118.129 230.825 114.282 230.825 112.452C230.825 111.575 230.75 110.434 230.6 109.03C230.499 107.877 230.449 107.05 230.449 106.549C230.449 105.321 230.763 104.368 231.389 103.692C232.016 103.015 232.906 102.676 234.059 102.676C235.613 102.676 236.678 103.215 237.254 104.293C237.831 105.371 238.119 106.937 238.119 108.993C238.119 110.021 237.981 111.8 237.706 114.332L237.593 115.234C239.698 110.998 242.073 107.783 244.718 105.59C247.362 103.397 250.125 102.3 253.008 102.3Z"/>
<path d="M288.35 134.371C289.352 134.371 290.192 134.703 290.869 135.368C291.546 136.032 291.884 136.84 291.884 137.793C291.884 139.447 290.956 141.133 289.102 142.85C287.247 144.566 284.922 145.989 282.127 147.117C279.333 148.245 276.657 148.809 274.1 148.809C270.992 148.809 268.273 148.132 265.941 146.778C263.61 145.425 261.806 143.476 260.527 140.932C259.249 138.388 258.61 135.386 258.61 131.927C258.61 127.19 259.587 122.528 261.543 117.941C263.498 113.354 266.18 109.601 269.588 106.681C272.997 103.76 276.782 102.3 280.943 102.3C283.5 102.3 285.693 102.795 287.523 103.786C289.352 104.776 290.75 106.179 291.715 107.996C292.68 109.814 293.162 111.951 293.162 114.407C293.162 117.791 291.834 120.723 289.177 123.205C286.52 125.686 283.092 127.591 278.894 128.92C274.695 130.248 270.315 130.975 265.754 131.1L265.754 131.815C265.754 135.324 266.455 138.118 267.859 140.199C269.263 142.279 271.293 143.319 273.95 143.319C275.98 143.319 277.885 142.774 279.665 141.684C281.444 140.594 283.224 138.72 285.004 136.063C285.354 135.512 285.818 135.092 286.395 134.804C286.971 134.515 287.623 134.371 288.35 134.371ZM280.153 108.542C277.948 108.542 275.899 109.363 274.006 111.004C272.114 112.646 270.51 114.795 269.194 117.452C267.878 120.109 266.932 122.942 266.355 125.949C269.363 125.849 272.44 125.273 275.585 124.22C278.731 123.167 281.344 121.751 283.424 119.971C285.505 118.192 286.545 116.237 286.545 114.106C286.545 113.053 286.276 112.107 285.737 111.267C285.198 110.428 284.44 109.764 283.462 109.275C282.484 108.786 281.382 108.542 280.153 108.542Z"/>
<path d="M329.218 134.371C330.221 134.371 331.061 134.703 331.737 135.368C332.414 136.032 332.753 136.84 332.753 137.793C332.753 139.447 331.825 141.133 329.97 142.85C328.115 144.566 325.791 145.989 322.996 147.117C320.201 148.245 317.525 148.809 314.969 148.809C311.861 148.809 309.141 148.132 306.81 146.778C304.479 145.425 302.674 143.476 301.396 140.932C300.118 138.388 299.479 135.386 299.479 131.927C299.479 127.19 300.456 122.528 302.411 117.941C304.366 113.354 307.048 109.601 310.457 106.681C313.866 103.76 317.651 102.3 321.812 102.3C324.368 102.3 326.561 102.795 328.391 103.786C330.221 104.776 331.618 106.179 332.583 107.996C333.548 109.814 334.031 111.951 334.031 114.407C334.031 117.791 332.702 120.723 330.046 123.205C327.389 125.686 323.961 127.591 319.763 128.92C315.564 130.248 311.184 130.975 306.622 131.1L306.622 131.815C306.622 135.324 307.324 138.118 308.728 140.199C310.131 142.279 312.162 143.319 314.818 143.319C316.849 143.319 318.754 142.774 320.533 141.684C322.313 140.594 324.093 138.72 325.872 136.063C326.223 135.512 326.687 135.092 327.263 134.804C327.84 134.515 328.491 134.371 329.218 134.371ZM321.022 108.542C318.816 108.542 316.767 109.363 314.875 111.004C312.982 112.646 311.378 114.795 310.062 117.452C308.746 120.109 307.8 122.942 307.224 125.949C310.232 125.849 313.308 125.273 316.454 124.22C319.6 123.167 322.213 121.751 324.293 119.971C326.373 118.192 327.414 116.237 327.414 114.106C327.414 113.053 327.144 112.107 326.605 111.267C326.066 110.428 325.308 109.764 324.331 109.275C323.353 108.786 322.25 108.542 321.022 108.542Z"/>
<path d="M382.682 82.7873C383.835 82.7873 384.788 83.1194 385.54 83.7836C386.292 84.4478 386.668 85.2812 386.668 86.2839C386.668 86.6348 386.492 87.5747 386.141 89.1037C385.715 90.758 385.389 92.2744 385.164 93.653C384.712 96.4352 384.192 99.9569 383.603 104.218C383.014 108.479 382.469 112.79 381.968 117.152C380.614 129.108 379.85 137.467 379.674 142.229C379.574 143.733 379.499 144.711 379.449 145.162C379.323 146.164 378.86 146.96 378.058 147.549C377.256 148.138 376.203 148.433 374.9 148.433C373.772 148.433 372.813 148.101 372.023 147.436C371.234 146.772 370.839 145.989 370.839 145.087C370.839 144.635 370.902 144.071 371.027 143.395C371.152 142.718 371.303 141.979 371.478 141.176C372.03 138.745 372.493 136.301 372.869 133.845C373.721 128.581 374.486 123.205 375.163 117.715C376.667 105.559 377.594 96.7987 377.945 91.4347C378.045 90.2817 378.133 89.4295 378.208 88.8781C377.983 88.9784 377.694 89.0285 377.343 89.0285C376.642 89.0285 376.015 88.7653 375.463 88.2389C374.561 87.3617 373.621 86.7037 372.644 86.2651C371.666 85.8264 370.538 85.6071 369.26 85.6071C366.427 85.6071 364.19 86.9857 362.549 89.7428C360.907 92.5 359.773 96.7485 359.146 102.488L359.071 103.09L360.725 102.977C361.051 102.952 362.135 102.877 363.977 102.752C365.82 102.626 367.505 102.564 369.034 102.564C371.039 102.564 372.042 103.24 372.042 104.594C372.042 105.947 371.641 107.019 370.839 107.809C370.037 108.598 368.921 108.993 367.493 108.993L363.282 108.955C362.655 108.93 361.69 108.918 360.387 108.918C359.51 108.918 358.858 108.93 358.432 108.955C357.981 113.241 357.586 116.907 357.247 119.953C356.909 122.998 356.627 125.586 356.401 127.716C356.276 128.769 356.076 130.574 355.8 133.131C355.599 134.985 355.462 136.803 355.386 138.582C355.311 140.362 355.261 141.402 355.236 141.703C355.211 143.132 355.148 144.297 355.048 145.199C354.948 146.202 354.49 146.992 353.676 147.568C352.861 148.145 351.827 148.433 350.574 148.433C349.421 148.433 348.5 148.088 347.81 147.399C347.121 146.71 346.776 145.901 346.776 144.974C346.776 144.272 346.852 143.507 347.002 142.68C347.152 141.853 347.391 140.8 347.716 139.522C348.017 138.269 348.268 137.103 348.468 136.026C349.12 132.341 349.634 128.757 350.01 125.273L351.175 115.159L351.852 109.369L348.957 109.632C346.877 109.858 345.435 109.97 344.633 109.97C343.355 109.97 342.321 109.713 341.532 109.2C340.742 108.686 340.347 107.852 340.347 106.699C340.347 105.421 340.698 104.418 341.4 103.692C342.102 102.965 343.067 102.601 344.295 102.601C344.922 102.601 345.987 102.676 347.491 102.827C349.22 103.027 350.925 103.153 352.604 103.203L352.754 101.812C353.707 93.9162 355.549 88.2139 358.281 84.7048C361.013 81.1956 364.66 79.4411 369.222 79.4411C371.227 79.4411 372.988 79.8233 374.505 80.5878C376.021 81.3523 377.343 82.5116 378.471 84.0656C378.647 84.2661 378.797 84.5168 378.922 84.8175C379.524 83.464 380.777 82.7873 382.682 82.7873Z"/>
<path d="M405.993 148.809C403.035 148.809 400.416 148.119 398.135 146.741C395.854 145.362 394.081 143.388 392.815 140.819C391.549 138.25 390.916 135.261 390.916 131.852C390.916 127.391 391.793 122.866 393.548 118.279C395.302 113.693 397.74 109.889 400.861 106.869C403.981 103.848 407.472 102.338 411.332 102.338C414.139 102.338 416.67 103.247 418.926 105.064C421.182 106.881 422.956 109.519 424.246 112.978C425.537 116.437 426.183 120.523 426.183 125.235C426.183 129.847 425.305 133.939 423.551 137.511C421.796 141.082 419.384 143.858 416.313 145.839C413.243 147.819 409.803 148.809 405.993 148.809ZM419.152 123.694C419.152 120.51 418.807 117.753 418.118 115.422C417.429 113.091 416.451 111.311 415.185 110.083C413.92 108.855 412.434 108.241 410.73 108.241C408.198 108.241 405.986 109.5 404.094 112.019C402.202 114.538 400.767 117.665 399.789 121.4C398.812 125.135 398.323 128.744 398.323 132.228C398.323 135.863 398.899 138.614 400.052 140.481C401.205 142.348 403.048 143.282 405.579 143.282C408.086 143.282 410.373 142.474 412.441 140.857C414.509 139.24 416.144 136.947 417.347 133.976C418.55 131.006 419.152 127.579 419.152 123.694Z"/>
<path d="M483.444 102.338C484.898 102.338 485.95 102.783 486.602 103.673C487.254 104.563 487.58 105.672 487.58 107C487.58 112.84 486.702 119.038 484.948 125.592C483.193 132.147 480.731 137.655 477.56 142.116C474.389 146.578 470.786 148.809 466.751 148.809C464.018 148.809 462.032 147.393 460.791 144.56C459.551 141.728 458.868 138.169 458.742 133.882C457.038 138.444 455.058 142.073 452.802 144.767C450.546 147.462 448.19 148.809 445.733 148.809C442.174 148.809 439.574 146.641 437.932 142.304C436.29 137.968 435.469 132.278 435.469 125.235C435.469 119.821 435.858 114.131 436.635 108.166C436.86 106.536 437.355 105.158 438.12 104.03C438.884 102.902 440.094 102.338 441.748 102.338C442.851 102.338 443.703 102.683 444.305 103.372C444.906 104.061 445.207 104.945 445.207 106.023C445.207 106.449 445.044 107.401 444.718 108.88C444.443 109.908 444.23 110.898 444.079 111.85C443.553 114.607 443.108 117.502 442.744 120.535C442.381 123.568 442.199 126.338 442.199 128.844C442.199 133.131 442.607 136.558 443.421 139.127C444.236 141.697 445.37 142.981 446.824 142.981C448.403 142.981 450.032 141.264 451.712 137.83C453.391 134.396 454.795 130.361 455.922 125.724C457.05 121.087 457.614 117.277 457.614 114.294C457.614 112.991 457.965 111.894 458.667 111.004C459.369 110.115 460.447 109.67 461.9 109.67C463.079 109.67 463.943 110.021 464.495 110.722C465.046 111.424 465.322 112.276 465.322 113.279C465.322 113.855 465.247 114.714 465.096 115.854C464.946 116.995 464.846 117.803 464.796 118.279C464.47 120.56 464.206 122.653 464.006 124.558C463.805 126.463 463.705 128.381 463.705 130.311C463.705 134.121 464.031 137.185 464.683 139.503C465.334 141.822 466.312 142.981 467.615 142.981C469.245 142.981 470.993 141.665 472.86 139.033C474.728 136.402 476.3 132.786 477.579 128.186C478.857 123.587 479.496 118.518 479.496 112.978C479.496 112.377 479.477 111.719 479.44 111.004C479.402 110.29 479.383 109.77 479.383 109.444C479.308 108.466 479.271 107.577 479.271 106.775C479.271 105.597 479.653 104.563 480.417 103.673C481.182 102.783 482.191 102.338 483.444 102.338Z"/>
</g>
</g>
</g>
</svg>
